<?xml version="1.0" encoding="utf-8"?>
<!-- Generator: Adobe Illustrator 16.0.0, SVG Export Plug-In . SVG Version: 6.00 Build 0)  -->
<!DOCTYPE svg PUBLIC "-//W3C//DTD SVG 1.1//EN" "http://www.w3.org/Graphics/SVG/1.1/DTD/svg11.dtd">
<svg version="1.1" id="Layer_1" xmlns="http://www.w3.org/2000/svg" xmlns:xlink="http://www.w3.org/1999/xlink" x="0px" y="0px"
	 width="32px" height="32px" viewBox="0 0 32 32" enable-background="new 0 0 32 32" xml:space="preserve">
<g>
	<polygon fill="#8579B2" points="27.382,28.834 16.028,31.941 4.673,28.834 2.053,0 30.002,0 	"/>
	<polygon fill="#9F95C7" points="16.027,1.998 16.027,29.695 25.24,26.957 27.691,1.998 	"/>
	<g>
		<path fill="#FFFFFF" d="M21.61,9.07c0.517,0.714,0.767,1.571,0.767,2.566c0,1.025-0.257,1.853-0.774,2.475
			c-0.288,0.349-0.713,0.668-1.283,0.957c0.858,0.312,1.503,0.805,1.944,1.481c0.434,0.676,0.653,1.495,0.653,2.459
			c0,0.995-0.252,1.89-0.744,2.681c-0.318,0.522-0.715,0.963-1.191,1.321c-0.54,0.409-1.17,0.69-1.897,0.841
			c-0.73,0.152-1.521,0.228-2.379,0.228H9.137V7.287h8.116C19.303,7.316,20.753,7.908,21.61,9.07z M12.484,10.202v3.704h4.085
			c0.729,0,1.32-0.135,1.776-0.416c0.455-0.281,0.683-0.767,0.683-1.474c0-0.781-0.303-1.297-0.903-1.548
			c-0.517-0.176-1.183-0.266-1.981-0.266H12.484L12.484,10.202z M12.484,16.684v4.479h4.078c0.729,0,1.299-0.099,1.7-0.295
			c0.737-0.364,1.102-1.063,1.102-2.096c0-0.873-0.357-1.473-1.07-1.799c-0.396-0.183-0.956-0.281-1.677-0.288h-4.132V16.684z"/>
	</g>
</g>
</svg>
