<?xml version="1.0" encoding="utf-8"?>
<!-- Generator: Adobe Illustrator 21.1.0, SVG Export Plug-In . SVG Version: 6.00 Build 0)  -->
<svg version="1.1" id="Warstwa_1" xmlns="http://www.w3.org/2000/svg" xmlns:xlink="http://www.w3.org/1999/xlink" x="0px" y="0px"
	 viewBox="0 0 100 100" style="enable-background:new 0 0 100 100;" xml:space="preserve">
<style type="text/css">
	.st0{fill:#0C226E;}
</style>
<g>
	<path class="st0" d="M88.7,87H87V38.2c0-0.9-0.8-1.7-1.7-1.7h-10c-0.9,0-1.7,0.8-1.7,1.7V87h-6.7V58.4c0-0.9-0.8-1.7-1.7-1.7H55.1
		c-0.9,0-1.7,0.8-1.7,1.7V87h-6.7V51.7c0-0.9-0.8-1.7-1.7-1.7H34.8c-0.9,0-1.7,0.8-1.7,1.7V87h-6.7V68.5c0-0.9-0.8-1.7-1.7-1.7H14.6
		c-0.9,0-1.7,0.8-1.7,1.7V87h-1.7c-0.9,0-1.7,0.8-1.7,1.7c0,0.9,0.8,1.7,1.7,1.7h3.4h10.1h10.1l0,0h10.1l0,0H55l0,0h10.1l0,0h10.1
		l0,0h10.1l0,0h3.4c0.9,0,1.7-0.8,1.7-1.7C90.4,87.8,89.7,87,88.7,87z M76.9,39.9h6.7V87h-6.7V39.9z M56.7,60.1h6.7V87h-6.7V60.1z
		 M36.5,53.4h6.7V87h-6.7V53.4z M23.1,87h-6.7V70.2h6.7L23.1,87L23.1,87z"/>
	<path class="st0" d="M19.7,53.4c3.7,0,6.7-3,6.7-6.7c0-1.2-0.3-2.3-0.8-3.3l10.3-8.2c1.1,0.8,2.5,1.4,4,1.4c2.5,0,4.6-1.3,5.8-3.3
		l7.8,2.2c-0.1,0.4-0.1,0.7-0.1,1.1c0,3.7,3,6.7,6.7,6.7s6.7-3,6.7-6.7c0-1.2-0.3-2.4-0.9-3.4l11-11c1,0.6,2.2,0.9,3.4,0.9
		c3.7,0,6.7-3,6.7-6.7s-3-6.7-6.7-6.7s-6.7,3-6.7,6.7c0,1.2,0.3,2.4,0.9,3.4l-11,11c-1-0.6-2.2-0.9-3.4-0.9c-2.1,0-4,1-5.2,2.5
		L46.6,30c0-0.1,0-0.1,0-0.2c0-3.7-3-6.7-6.7-6.7s-6.7,3-6.7,6.7c0,1,0.2,1.9,0.6,2.8L23.3,41c-1-0.6-2.3-1-3.6-1
		C16,40,13,43,13,46.7S16,53.4,19.7,53.4z M80.3,13c1.9,0,3.4,1.5,3.4,3.4s-1.5,3.4-3.4,3.4c-0.9,0-1.7-0.4-2.4-1l0,0l0,0
		c-0.6-0.6-1-1.4-1-2.4C76.9,14.5,78.5,13,80.3,13z M60.1,33.2c1.9,0,3.4,1.5,3.4,3.4S62,40,60.1,40s-3.4-1.5-3.4-3.4
		C56.7,34.7,58.2,33.2,60.1,33.2z M39.9,26.4c1.9,0,3.4,1.5,3.4,3.4s-1.5,3.4-3.4,3.4c-1,0-2-0.5-2.6-1.2c0,0,0,0,0-0.1l0,0
		c-0.5-0.6-0.7-1.3-0.7-2.1C36.5,27.9,38,26.4,39.9,26.4z M19.7,43.3c0.9,0,1.8,0.4,2.4,1l0,0c0.6,0.6,1,1.4,1,2.4
		c0,1.9-1.5,3.4-3.4,3.4s-3.4-1.5-3.4-3.4C16.3,44.8,17.8,43.3,19.7,43.3z"/>
</g>
</svg>
