<?xml version="1.0" encoding="utf-8"?>
<!-- Generator: Adobe Illustrator 16.0.0, SVG Export Plug-In . SVG Version: 6.00 Build 0)  -->
<!DOCTYPE svg PUBLIC "-//W3C//DTD SVG 1.1//EN" "http://www.w3.org/Graphics/SVG/1.1/DTD/svg11.dtd">
<svg version="1.1" id="Layer_1" xmlns="http://www.w3.org/2000/svg" xmlns:xlink="http://www.w3.org/1999/xlink" x="0px" y="0px"
	 width="32px" height="32px" viewBox="0 0 32 32" enable-background="new 0 0 32 32" xml:space="preserve">
<g>
	<polygon fill="#4D8D89" points="27.378,28.824 16.027,31.927 4.677,28.824 2.058,0 29.996,0 	"/>
	<polygon fill="#CC823B" points="16.026,1.995 16.026,29.683 25.238,26.946 27.687,1.995 	"/>
	<path fill="#FFFFFF" d="M22.654,17.55c-1.008-0.025-1.789,0.076-2.443,0.354c-0.189,0.076-0.491,0.076-0.517,0.314
		c0.102,0.102,0.114,0.265,0.203,0.403c0.15,0.253,0.414,0.591,0.654,0.768c0.265,0.203,0.529,0.402,0.807,0.579
		c0.49,0.303,1.044,0.479,1.523,0.782c0.277,0.175,0.554,0.402,0.832,0.591c0.136,0.101,0.225,0.266,0.402,0.328V21.63
		c-0.089-0.113-0.115-0.277-0.202-0.403l-0.377-0.365c-0.366-0.49-0.821-0.918-1.311-1.271c-0.403-0.277-1.285-0.655-1.448-1.119
		l-0.025-0.027c0.276-0.025,0.605-0.126,0.868-0.203c0.428-0.113,0.819-0.088,1.26-0.199c0.202-0.052,0.402-0.115,0.604-0.178
		v-0.112c-0.228-0.229-0.39-0.53-0.63-0.744c-0.641-0.554-1.348-1.095-2.077-1.548c-0.392-0.252-0.894-0.416-1.311-0.631
		c-0.149-0.076-0.404-0.113-0.492-0.238c-0.225-0.277-0.354-0.642-0.516-0.97c-0.363-0.691-0.719-1.46-1.032-2.192
		c-0.228-0.491-0.366-0.981-0.643-1.435c-1.298-2.141-2.708-3.438-4.875-4.71c-0.466-0.265-1.02-0.378-1.612-0.517l-0.944-0.05
		C9.153,4.628,8.952,4.388,8.775,4.274c-0.719-0.453-2.57-1.435-3.098-0.139c-0.341,0.82,0.504,1.626,0.794,2.041
		c0.213,0.289,0.492,0.618,0.64,0.945c0.09,0.214,0.114,0.441,0.203,0.668c0.201,0.554,0.39,1.17,0.655,1.687
		c0.139,0.265,0.288,0.542,0.465,0.78c0.102,0.14,0.277,0.202,0.316,0.429c-0.176,0.251-0.189,0.63-0.29,0.945
		c-0.454,1.423-0.276,3.187,0.365,4.231c0.201,0.315,0.681,1.009,1.322,0.743c0.567-0.227,0.441-0.944,0.604-1.574
		c0.038-0.153,0.014-0.252,0.09-0.352v0.025c0.175,0.352,0.353,0.691,0.515,1.044c0.392,0.617,1.071,1.258,1.638,1.686
		c0.302,0.228,0.54,0.617,0.919,0.757v-0.038h-0.025c-0.076-0.111-0.188-0.163-0.288-0.25c-0.228-0.228-0.479-0.504-0.655-0.757
		c-0.527-0.705-0.995-1.486-1.41-2.292c-0.203-0.392-0.378-0.818-0.541-1.209c-0.077-0.15-0.077-0.378-0.203-0.454
		c-0.189,0.276-0.466,0.517-0.604,0.855c-0.24,0.543-0.264,1.211-0.354,1.904l-0.05,0.024c-0.4-0.101-0.54-0.516-0.692-0.869
		c-0.378-0.894-0.441-2.331-0.114-3.362c0.088-0.264,0.467-1.096,0.315-1.347c-0.075-0.241-0.327-0.378-0.466-0.568
		c-0.162-0.239-0.341-0.54-0.454-0.806C8.072,8.317,7.918,7.537,7.594,6.831c-0.153-0.328-0.417-0.667-0.631-0.97
		C6.724,5.521,6.46,5.282,6.27,4.879C6.207,4.74,6.119,4.514,6.22,4.363c0.025-0.101,0.076-0.139,0.177-0.164
		c0.163-0.139,0.629,0.037,0.792,0.113C7.656,4.5,8.046,4.677,8.436,4.941C8.612,5.068,8.802,5.308,9.028,5.37h0.265
		c0.402,0.088,0.855,0.025,1.234,0.139c0.668,0.214,1.271,0.529,1.813,0.868c1.65,1.046,3.011,2.533,3.93,4.308
		c0.149,0.29,0.214,0.555,0.352,0.856c0.265,0.617,0.594,1.247,0.856,1.853c0.266,0.591,0.517,1.195,0.895,1.687
		c0.188,0.264,0.946,0.403,1.285,0.542c0.251,0.113,0.643,0.214,0.869,0.352c0.428,0.265,0.854,0.569,1.259,0.858
		C21.985,16.983,22.616,17.297,22.654,17.55 M9.806,6.605C9.633,6.604,9.459,6.625,9.291,6.669v0.025h0.024
		C9.417,6.896,9.593,7.035,9.718,7.21c0.103,0.202,0.189,0.402,0.288,0.604l0.025-0.025c0.178-0.126,0.266-0.328,0.266-0.63
		c-0.076-0.088-0.088-0.176-0.151-0.264C10.072,6.769,9.909,6.707,9.806,6.605"/>
</g>
</svg>
