<?xml version="1.0" encoding="utf-8"?>
<!-- Generator: Adobe Illustrator 16.0.0, SVG Export Plug-In . SVG Version: 6.00 Build 0)  -->
<!DOCTYPE svg PUBLIC "-//W3C//DTD SVG 1.1//EN" "http://www.w3.org/Graphics/SVG/1.1/DTD/svg11.dtd">
<svg version="1.1" id="Layer_1" xmlns="http://www.w3.org/2000/svg" xmlns:xlink="http://www.w3.org/1999/xlink" x="0px" y="0px"
	 width="32px" height="32px" viewBox="0 0 32 32" enable-background="new 0 0 32 32" xml:space="preserve">
<g>
	<polygon fill="#8488BA" points="27.322,28.791 16,31.888 4.678,28.791 2.065,0.039 29.936,0.039 	"/>
	<polygon fill="#9BA1CD" points="15.999,2.03 15.999,29.648 25.188,26.918 27.629,2.03 	"/>
	<polygon fill="#FFFFFF" points="13.001,12.655 7.674,15.13 7.674,16.222 13.001,18.697 13.001,17.252 9.403,15.677 13.001,14.1 	
		"/>
	<g>
		<path fill="#FFFFFF" d="M18.998,17.347l-0.016-0.401c-0.045-0.788,0.217-1.593,0.912-2.428c0.494-0.587,0.896-1.081,0.896-1.607
			c0-0.541-0.355-0.897-1.129-0.928c-0.51,0-1.127,0.186-1.531,0.465l-0.525-1.687c0.559-0.324,1.484-0.634,2.584-0.634
			c2.039,0,2.967,1.129,2.967,2.412c0,1.175-0.725,1.948-1.312,2.599c-0.574,0.633-0.805,1.235-0.789,1.932v0.277H18.998z
			 M18.596,19.481c0-0.819,0.572-1.408,1.377-1.408c0.834,0,1.377,0.589,1.391,1.408c0,0.804-0.557,1.406-1.391,1.406
			C19.152,20.888,18.596,20.285,18.596,19.481z"/>
	</g>
</g>
</svg>
