<?xml version="1.0" encoding="utf-8"?>
<!-- Generator: Adobe Illustrator 21.1.0, SVG Export Plug-In . SVG Version: 6.00 Build 0)  -->
<svg version="1.1" id="Warstwa_1" xmlns="http://www.w3.org/2000/svg" xmlns:xlink="http://www.w3.org/1999/xlink" x="0px" y="0px"
	 viewBox="0 0 100 100" style="enable-background:new 0 0 100 100;" xml:space="preserve">
<style type="text/css">
	.st0{fill:#0C226E;}
</style>
<g>
	<g>
		<g>
			<path class="st0" d="M90.3,8.1H9.7c-0.9,0-1.6,0.7-1.6,1.6v71.7c0,0.9,0.7,1.6,1.6,1.6h34c0.9,0,1.6-0.7,1.6-1.6
				s-0.7-1.6-1.6-1.6H11.4V23.2c0.1,0,0.1,0,0.2,0h77.1v56.6h-3.2c-0.9,0-1.6,0.7-1.6,1.6s0.7,1.6,1.6,1.6h4.8
				c0.9,0,1.6-0.7,1.6-1.6V9.7C91.9,8.8,91.2,8.1,90.3,8.1z M88.6,19.9H11.5c-0.1,0-0.1,0-0.2,0v-8.5h77.3
				C88.6,11.4,88.6,19.9,88.6,19.9z"/>
		</g>
	</g>
	<g>
		<g>
			<path class="st0" d="M51.8,80.3c-0.3-0.3-0.7-0.5-1.2-0.5c-0.4,0-0.9,0.2-1.2,0.5S49,81,49,81.4s0.2,0.9,0.5,1.2
				c0.3,0.3,0.7,0.5,1.2,0.5c0.4,0,0.9-0.2,1.2-0.5s0.5-0.7,0.5-1.2S52.1,80.6,51.8,80.3z"/>
		</g>
	</g>
	<g>
		<g>
			<path class="st0" d="M81.4,14h-37c-0.9,0-1.6,0.7-1.6,1.6c0,0.9,0.7,1.6,1.6,1.6h37c0.9,0,1.6-0.7,1.6-1.6
				C83.1,14.7,82.3,14,81.4,14z"/>
		</g>
	</g>
	<g>
		<g>
			<path class="st0" d="M26.3,14.5C26,14.2,25.6,14,25.1,14c-0.4,0-0.9,0.2-1.2,0.5c-0.3,0.3-0.5,0.7-0.5,1.2c0,0.4,0.2,0.9,0.5,1.2
				s0.7,0.5,1.2,0.5c0.4,0,0.9-0.2,1.2-0.5c0.3-0.3,0.5-0.7,0.5-1.2C26.8,15.2,26.6,14.8,26.3,14.5z"/>
		</g>
	</g>
	<g>
		<g>
			<path class="st0" d="M19.7,14.5C19.4,14.2,19,14,18.6,14s-0.9,0.2-1.2,0.5c-0.3,0.3-0.5,0.7-0.5,1.2c0,0.4,0.2,0.9,0.5,1.2
				s0.7,0.5,1.2,0.5s0.9-0.2,1.2-0.5c0.3-0.3,0.5-0.7,0.5-1.2C20.2,15.2,20,14.8,19.7,14.5z"/>
		</g>
	</g>
	<g>
		<g>
			<path class="st0" d="M32.8,14.5c-0.3-0.3-0.7-0.5-1.2-0.5c-0.4,0-0.9,0.2-1.2,0.5c-0.3,0.3-0.5,0.7-0.5,1.2
				c0,0.4,0.2,0.9,0.5,1.2s0.7,0.5,1.2,0.5c0.4,0,0.9-0.2,1.2-0.5s0.5-0.7,0.5-1.2C33.3,15.2,33.1,14.8,32.8,14.5z"/>
		</g>
	</g>
	<g>
		<g>
			<path class="st0" d="M59.4,58.5c-0.2-0.7-0.8-1.2-1.6-1.3l-4.2-0.6l-1.9-3.8l0,0c-0.3-0.7-1-1.1-1.8-1.1l0,0
				c-0.8,0-1.4,0.4-1.8,1.1l-1.9,3.8L42,57.2c-0.7,0.1-1.4,0.6-1.6,1.3c-0.2,0.7,0,1.5,0.5,2l3,3l-0.7,4.2c-0.1,0.7,0.2,1.5,0.8,1.9
				c0.3,0.2,0.7,0.4,1.2,0.4c0.3,0,0.6-0.1,0.9-0.2l3.8-2l3.8,2c0.7,0.4,1.5,0.3,2.1-0.2c0.6-0.4,0.9-1.2,0.8-1.9l-0.7-4.2l3-3
				C59.5,60,59.7,59.3,59.4,58.5z M53.1,61.6c-0.5,0.5-0.7,1.1-0.6,1.7l0.4,2.2l-2-1.1c-0.6-0.3-1.3-0.3-1.8,0l-2,1.1l0.4-2.2
				c0.1-0.6-0.1-1.3-0.6-1.7L45.3,60l2.3-0.3c0.6-0.1,1.2-0.5,1.5-1.1l1-2l1,2c0.3,0.6,0.8,1,1.5,1.1l2.3,0.3L53.1,61.6z"/>
		</g>
	</g>
	<g>
		<g>
			<path class="st0" d="M36.3,58.5c-0.2-0.7-0.8-1.2-1.6-1.3l-4.2-0.6l-1.9-3.8l0,0c-0.3-0.7-1-1.1-1.8-1.1l0,0
				c-0.8,0-1.4,0.4-1.8,1.1l-1.9,3.8L19,57.2c-0.7,0.1-1.4,0.6-1.6,1.3s0,1.5,0.5,2l3,3l-0.7,4.2c-0.1,0.7,0.2,1.5,0.8,1.9
				c0.3,0.2,0.7,0.4,1.2,0.4c0.3,0,0.6-0.1,0.9-0.2l3.8-2l3.8,2c0.7,0.4,1.5,0.3,2.1-0.2c0.6-0.4,0.9-1.2,0.8-1.9l-0.7-4.2l3-3
				C36.3,60,36.5,59.3,36.3,58.5z M29.9,61.6c-0.5,0.5-0.7,1.1-0.6,1.7l0.4,2.2l-2-1.1c-0.6-0.3-1.3-0.3-1.8,0l-2,1.1l0.4-2.2
				c0.1-0.6-0.1-1.3-0.6-1.7L22.1,60l2.3-0.3c0.6-0.1,1.2-0.5,1.5-1.1l1-2l1,2c0.3,0.6,0.8,1,1.5,1.1l2.3,0.3L29.9,61.6z"/>
		</g>
	</g>
	<g>
		<g>
			<path class="st0" d="M82.6,58.5c-0.2-0.7-0.8-1.2-1.6-1.3l-4.2-0.6l-1.9-3.8c-0.3-0.7-1-1.1-1.8-1.1l0,0c-0.8,0-1.4,0.4-1.8,1.1
				l0,0l-1.9,3.8l-4.2,0.6c-0.7,0.1-1.4,0.6-1.6,1.3c-0.2,0.7,0,1.5,0.5,2l3,3l-0.7,4.2c-0.1,0.7,0.2,1.5,0.8,1.9
				c0.6,0.4,1.4,0.5,2.1,0.2l3.8-2l3.8,2c0.3,0.2,0.6,0.2,0.9,0.2c0.4,0,0.8-0.1,1.2-0.4c0.6-0.4,0.9-1.2,0.8-1.9l-0.7-4.2l3-3
				C82.6,60,82.8,59.3,82.6,58.5z M76.3,61.7c-0.5,0.5-0.7,1.1-0.6,1.7l0.4,2.2l-2-1.1c-0.3-0.2-0.6-0.2-0.9-0.2s-0.6,0.1-0.9,0.2
				l-2,1.1l0.4-2.2c0.1-0.6-0.1-1.3-0.6-1.7l-1.6-1.6l2.3-0.3c0.6-0.1,1.2-0.5,1.5-1.1l1-2l1,2c0.3,0.6,0.8,1,1.5,1.1l2.3,0.3
				L76.3,61.7z"/>
		</g>
	</g>
	<g>
		<g>
			<path class="st0" d="M81.4,27.4H18.6c-0.9,0-1.6,0.7-1.6,1.6v17.7c0,0.9,0.7,1.6,1.6,1.6h62.8c0.9,0,1.6-0.7,1.6-1.6V29.1
				C83.1,28.1,82.3,27.4,81.4,27.4z M79.8,45.1H20.2v-7.2h24.2c0.9,0,1.6-0.7,1.6-1.6c0-0.9-0.7-1.6-1.6-1.6H20.2v-3.9h59.6V45.1z"
				/>
		</g>
	</g>
	<g>
		<g>
			<path class="st0" d="M85.4,84.3c-1,0-1.9,0.2-2.7,0.7c-0.8-2.1-2.8-3.6-5.2-3.6c-1.5,0-2.9,0.6-3.9,1.6c-1-1-2.4-1.6-3.9-1.6
				c-0.8,0-1.6,0.2-2.3,0.5v-9.7c0-3.1-2.5-5.6-5.6-5.6s-5.6,2.5-5.6,5.6v18c0,0.9,0.7,1.6,1.6,1.6c0.9,0,1.6-0.7,1.6-1.6v-18
				c0-1.3,1-2.3,2.3-2.3s2.3,1,2.3,2.3v18c0,0.9,0.7,1.6,1.6,1.6s1.6-0.7,1.6-1.6V87c0-1.3,1-2.3,2.3-2.3s2.3,1,2.3,2.3v3.2
				c0,0.9,0.7,1.6,1.6,1.6s1.6-0.7,1.6-1.6V87c0-1.3,1-2.3,2.3-2.3s2.3,1,2.3,2.3v3.2c0,0.9,0.7,1.6,1.6,1.6s1.6-0.7,1.6-1.6v-0.3
				c0-1.3,1-2.3,2.3-2.3s2.3,1,2.3,2.3c0,0.9,0.7,1.6,1.6,1.6s1.6-0.7,1.6-1.6C91,86.8,88.5,84.3,85.4,84.3z"/>
		</g>
	</g>
	<g>
		<g>
			<path class="st0" d="M53,35.1c-0.3-0.3-0.7-0.5-1.2-0.5s-0.9,0.2-1.2,0.5s-0.5,0.7-0.5,1.2s0.2,0.9,0.5,1.2s0.7,0.5,1.2,0.5
				s0.9-0.2,1.2-0.5s0.5-0.7,0.5-1.2S53.3,35.4,53,35.1z"/>
		</g>
	</g>
</g>
</svg>
