<?xml version="1.0" encoding="utf-8"?>
<!-- Generator: Adobe Illustrator 21.1.0, SVG Export Plug-In . SVG Version: 6.00 Build 0)  -->
<svg version="1.1" id="Warstwa_1" xmlns="http://www.w3.org/2000/svg" xmlns:xlink="http://www.w3.org/1999/xlink" x="0px" y="0px"
	 viewBox="0 0 100 100" style="enable-background:new 0 0 100 100;" xml:space="preserve">
<style type="text/css">
	.st0{fill:#0C226E;}
</style>
<g>
	<path class="st0" d="M60.9,31c2.1,0,3.9-1.7,3.9-3.9s-1.7-3.9-3.9-3.9S57,25,57,27.2c0,0.9,0.3,1.7,0.8,2.3l-6.3,8.9
		c-0.4-0.1-0.8-0.2-1.2-0.2c-1,0-1.9,0.4-2.6,1l-4.2-2.4c0.1-0.3,0.1-0.5,0.1-0.8c0-2.1-1.7-3.9-3.9-3.9c-2.1,0-3.9,1.7-3.9,3.9
		c0,0.3,0,0.5,0.1,0.8l-4.2,2.4c-0.7-0.6-1.6-1-2.6-1c-2.1,0-3.9,1.7-3.9,3.9s1.7,3.9,3.9,3.9s3.9-1.7,3.9-3.9c0-0.3,0-0.5-0.1-0.8
		l4.2-2.4c0.7,0.6,1.6,1,2.6,1s1.9-0.4,2.6-1l4.2,2.4c-0.1,0.3-0.1,0.5-0.1,0.8c0,2.1,1.7,3.9,3.9,3.9c2.1,0,3.9-1.7,3.9-3.9
		c0-0.9-0.3-1.7-0.8-2.3l6.3-8.9C60.1,30.9,60.5,31,60.9,31z M60.9,25.6c0.9,0,1.5,0.7,1.5,1.5c0,0.9-0.7,1.5-1.5,1.5
		s-1.5-0.7-1.5-1.5C59.4,26.3,60.1,25.6,60.9,25.6z M29,43.5c-0.9,0-1.5-0.7-1.5-1.5c0-0.9,0.7-1.5,1.5-1.5c0.9,0,1.5,0.7,1.5,1.5
		C30.6,42.9,29.9,43.5,29,43.5z M39.6,37.5c-0.9,0-1.5-0.7-1.5-1.5c0-0.9,0.7-1.5,1.5-1.5s1.5,0.7,1.5,1.5
		C41.2,36.8,40.5,37.5,39.6,37.5z M50.3,43.5c-0.9,0-1.5-0.7-1.5-1.5c0-0.9,0.7-1.5,1.5-1.5c0.9,0,1.5,0.7,1.5,1.5
		C51.8,42.9,51.1,43.5,50.3,43.5z"/>
	<path class="st0" d="M75.1,68.7H67H22.9h-9.1c-0.5,0-1-0.4-1-1V19.9c0-0.5,0.4-1,1-1h5.5c0.6,0,1.2-0.5,1.2-1.2
		c0-0.6-0.5-1.2-1.2-1.2h-5.5c-1.8,0-3.3,1.5-3.3,3.3v47.8c0,1.8,1.5,3.3,3.3,3.3h8v2.5c0,1.5,1.2,2.6,2.6,2.6H36l-5.5,10.7
		c-0.3,0.6-0.1,1.3,0.5,1.6c0.2,0.1,0.3,0.1,0.5,0.1c0.4,0,0.8-0.2,1-0.6l6-11.7h12.8l6,11.7c0.2,0.4,0.6,0.6,1,0.6
		c0.2,0,0.4,0,0.5-0.1c0.6-0.3,0.8-1,0.5-1.6L54,76.2h11.6c1.5,0,2.6-1.2,2.6-2.6V71h6.9c0.6,0,1.2-0.5,1.2-1.2S75.8,68.7,75.1,68.7
		z M65.9,73.5c0,0.2-0.1,0.3-0.3,0.3H24.4c-0.2,0-0.3-0.1-0.3-0.3V71h41.8V73.5z"/>
	<path class="st0" d="M23.8,19h15.9h10.5h25.9c0.5,0,1,0.4,1,1v11c0,0.6,0.5,1.2,1.2,1.2s1.2-0.5,1.2-1.2V20c0-1.8-1.5-3.3-3.3-3.3
		H51.4v-2.3c0-1.6-1.3-2.9-2.9-2.9h-7c-1.6,0-2.9,1.3-2.9,2.9v2.3H23.8c-0.6,0-1.2,0.5-1.2,1.2C22.7,18.5,23.2,19,23.8,19z
		 M40.8,14.4c0-0.3,0.3-0.6,0.6-0.6h7c0.3,0,0.6,0.3,0.6,0.6v2.3h-8.2L40.8,14.4L40.8,14.4z"/>
	<path class="st0" d="M26.7,51.8c-0.6,0-1.2,0.5-1.2,1.2v10.2c0,0.6,0.5,1.2,1.2,1.2h4.7c0.6,0,1.2-0.5,1.2-1.2V52.9
		c0-0.6-0.5-1.2-1.2-1.2L26.7,51.8L26.7,51.8z M30.2,62h-2.4v-7.9h2.4V62z"/>
	<path class="st0" d="M37.3,45.9c-0.6,0-1.2,0.5-1.2,1.2v16.2c0,0.6,0.5,1.2,1.2,1.2H42c0.6,0,1.2-0.5,1.2-1.2V47
		c0-0.6-0.5-1.2-1.2-1.2h-4.7V45.9z M40.8,62h-2.4V48.2h2.4V62z"/>
	<path class="st0" d="M47.9,51.8c-0.6,0-1.2,0.5-1.2,1.2v10.2c0,0.6,0.5,1.2,1.2,1.2h4.7c0.6,0,1.2-0.5,1.2-1.2V52.9
		c0-0.6-0.5-1.2-1.2-1.2L47.9,51.8L47.9,51.8z M51.5,62h-2.4v-7.9h2.4V62z"/>
	<path class="st0" d="M58.6,58.6c-0.6,0-1.2,0.5-1.2,1.2v3.4c0,0.6,0.5,1.2,1.2,1.2h4.7c0.6,0,1.2-0.5,1.2-1.2S63.9,62,63.3,62h-3.5
		v-2.2C59.7,59.1,59.2,58.6,58.6,58.6z"/>
	<path class="st0" d="M88.9,69.8l-6.6-11.5c1.7-1.8,2.9-4,3.6-6.4c1-3.9,0.5-8-1.5-11.5c-4.2-7.2-13.5-9.7-20.7-5.5
		C56.4,39,54,48.3,58.1,55.5c2,3.5,5.3,6,9.2,7.1c1.3,0.3,2.6,0.5,3.9,0.5c1.1,0,2.3-0.1,3.4-0.4l6.6,11.5c0.8,1.4,2.3,2.2,3.8,2.2
		c0.7,0,1.5-0.2,2.2-0.6c1.4-0.8,2.2-2.2,2.2-3.8C89.5,71.2,89.3,70.4,88.9,69.8z M67.9,60.3c-3.3-0.9-6.1-3-7.8-6
		c-3.5-6.1-1.4-14,4.7-17.5c2-1.2,4.2-1.7,6.4-1.7c4.4,0,8.8,2.3,11.1,6.4c1.7,3,2.2,6.4,1.3,9.7c-0.9,3.3-3,6.1-6,7.8
		C74.7,60.7,71.2,61.2,67.9,60.3z M86.2,73.8c-1,0.6-2.3,0.2-2.9-0.8l-6.4-11.1c0.6-0.3,1.3-0.6,1.9-0.9c0.6-0.4,1.2-0.7,1.7-1.2
		l6.4,11.1c0.2,0.3,0.3,0.7,0.3,1C87.2,72.7,86.8,73.4,86.2,73.8z"/>
	<path class="st0" d="M81.7,51.2c0.8-2.6,0.6-5.5-0.5-7.9c-0.3-0.6-1-0.8-1.5-0.6c-0.6,0.3-0.8,1-0.6,1.5c0.9,2,1.1,4.2,0.4,6.3
		c-0.6,2.1-2.1,3.8-3.9,4.9c-2,1.2-4.3,1.5-6.6,0.9c-2.2-0.6-4.1-2-5.3-4c-2.4-4.1-1-9.5,3.2-11.9c3-1.7,6.8-1.5,9.6,0.6
		c0.5,0.4,1.2,0.3,1.6-0.2s0.3-1.2-0.2-1.6c-3.5-2.7-8.3-3-12.1-0.8c-2.5,1.5-4.4,3.8-5.1,6.7c-0.8,2.8-0.4,5.8,1.1,8.3
		s3.8,4.4,6.7,5.1c0.9,0.3,1.9,0.4,2.9,0.4c1.9,0,3.8-0.5,5.5-1.5C79.1,56,80.9,53.8,81.7,51.2z"/>
</g>
</svg>
