<?xml version="1.0" encoding="utf-8"?>
<!-- Generator: Adobe Illustrator 21.1.0, SVG Export Plug-In . SVG Version: 6.00 Build 0)  -->
<svg version="1.1" id="Warstwa_1" xmlns="http://www.w3.org/2000/svg" xmlns:xlink="http://www.w3.org/1999/xlink" x="0px" y="0px"
	 viewBox="0 0 100 100" style="enable-background:new 0 0 100 100;" xml:space="preserve">
<style type="text/css">
	.st0{fill:#0C226E;}
</style>
<g>
	<g>
		<g>
			<path class="st0" d="M86.8,14.6H13.2c-2.9,0-5.2,2.3-5.2,5.2v50c0,2.9,2.3,5.2,5.2,5.2h24.9l-1,8.1h-4.2c-0.7,0-1.2,0.6-1.2,1.2
				c0,0.7,0.6,1.2,1.2,1.2h34.2c0.7,0,1.2-0.6,1.2-1.2c0-0.7-0.6-1.2-1.2-1.2h-4.2l-1-8.1h24.9c2.9,0,5.2-2.3,5.2-5.2v-50
				C92,16.9,89.7,14.6,86.8,14.6z M39.6,83l1-8.1h4.5l0.4,1.8c0.5,2.1,2.3,3.5,4.5,3.5s3.9-1.4,4.5-3.5l0.4-1.8h4.5l1,8.1H39.6z
				 M47.6,74.9h4.7L52,76.1c-0.2,1-1.1,1.6-2.1,1.6s-1.8-0.7-2.1-1.6L47.6,74.9z M89.5,69.7L89.5,69.7c0,1.5-1.2,2.7-2.7,2.7H13.2
				c-1.5,0-2.7-1.2-2.7-2.7v-50c0-1.5,1.2-2.7,2.7-2.7h73.6c1.5,0,2.7,1.2,2.7,2.7L89.5,69.7L89.5,69.7z"/>
		</g>
	</g>
	<g>
		<g>
			<path class="st0" d="M77.6,19.8H14.5c-0.7,0-1.2,0.6-1.2,1.2v47.3c0,0.7,0.6,1.2,1.2,1.2h2.6c0.7,0,1.2-0.6,1.2-1.2
				c0-0.7-0.6-1.2-1.2-1.2h-1.4V22.3h61.9c0.7,0,1.2-0.6,1.2-1.2C78.8,20.4,78.3,19.8,77.6,19.8z"/>
		</g>
	</g>
	<g>
		<g>
			<path class="st0" d="M85.5,19.8h-2.6c-0.7,0-1.2,0.6-1.2,1.2c0,0.7,0.6,1.2,1.2,1.2h1.4v44.9H22.4c-0.7,0-1.2,0.6-1.2,1.2
				c0,0.7,0.6,1.2,1.2,1.2h63.1c0.7,0,1.2-0.6,1.2-1.2V21.1C86.7,20.4,86.2,19.8,85.5,19.8z"/>
		</g>
	</g>
	<g>
		<g>
			<path class="st0" d="M66.8,33.5c-0.2-0.3-0.6-0.5-0.9-0.5L37,31.7c0,0,0,0-0.1,0c-0.2-0.6-0.5-1-1-1.4l-3.5-2.4
				c-0.6-0.4-1.3-0.2-1.7,0.3c-0.4,0.6-0.2,1.3,0.3,1.7l3.5,2.4l0,0L39,48.2c0.1,0.5,0.4,0.9,0.7,1.3L38,52.8
				c-0.4,0.8-0.4,1.7,0.1,2.5c0.2,0.3,0.4,0.5,0.6,0.7c-0.3,0.6-0.5,1.2-0.5,1.9c0,2.1,1.7,3.9,3.9,3.9c2.1,0,3.9-1.7,3.9-3.9
				c0-0.5-0.1-1-0.3-1.4h11.2c-0.2,0.4-0.3,0.9-0.3,1.4c0,2.1,1.7,3.9,3.9,3.9s3.9-1.7,3.9-3.9c0-0.6-0.1-1.2-0.4-1.7
				c0.2-0.2,0.4-0.5,0.4-0.9c0-0.7-0.6-1.2-1.2-1.2H40.3c0,0,0,0-0.1,0V54l1.5-3c0.3,0.1,0.6,0.1,1,0.1c0.2,0,0.3,0,0.5,0l17.3-2
				c2.2-0.3,4-1.9,4.5-4.1l2-10.5C67.1,34.1,67,33.7,66.8,33.5z M60.5,56.5c0.8,0,1.4,0.6,1.4,1.4c0,0.8-0.6,1.4-1.4,1.4
				s-1.4-0.6-1.4-1.4S59.7,56.5,60.5,56.5z M42.1,56.5c0.8,0,1.4,0.6,1.4,1.4c0,0.8-0.6,1.4-1.4,1.4c-0.8,0-1.4-0.6-1.4-1.4
				C40.7,57.1,41.3,56.5,42.1,56.5z M39.1,39.6l-1.5-5.4l4.9,0.2l0.9,5.2H39.1z M42.9,48.5c-0.7,0.1-1.3-0.3-1.5-1L39.8,42h3.9
				l1,6.3L42.9,48.5z M50.1,47.7L47.2,48l-1-6h3.9C50.1,42,50.1,47.7,50.1,47.7z M50.1,39.6h-4.3L45,34.5l5.1,0.2V39.6z M56.3,46.9
				l-3.8,0.4V42h4.2L56.3,46.9z M57,39.6h-4.4v-4.7l4.8,0.2L57,39.6z M62.5,44.3c-0.2,1.2-1.2,2-2.3,2.2l-1.3,0.2l0.4-4.6H63
				L62.5,44.3z M63.5,39.6h-4l0.4-4.4l4.4,0.2L63.5,39.6z"/>
		</g>
	</g>
</g>
</svg>
