<?xml version="1.0" encoding="utf-8"?>
<!-- Generator: Adobe Illustrator 21.1.0, SVG Export Plug-In . SVG Version: 6.00 Build 0)  -->
<svg version="1.1" id="Warstwa_1" xmlns="http://www.w3.org/2000/svg" xmlns:xlink="http://www.w3.org/1999/xlink" x="0px" y="0px"
	 viewBox="0 0 100 100" style="enable-background:new 0 0 100 100;" xml:space="preserve">
<style type="text/css">
	.st0{fill:#0C226E;}
</style>
<g>
	<path class="st0" d="M45.7,30H34.3c-0.8,0-1.4,0.6-1.4,1.4V40c0,0.8,0.6,1.4,1.4,1.4h11.4c0.8,0,1.4-0.6,1.4-1.4v-8.6
		C47.1,30.6,46.5,30,45.7,30z M44.3,38.6h-8.6v-5.7h8.6C44.3,32.9,44.3,38.6,44.3,38.6z"/>
	<path class="st0" d="M28.5,47.1h33l1.4,4.7c0.1,0.5,0.5,0.9,1,1s1,0,1.4-0.4l2-2l3.3,3.3c0.3,0.3,0.8,0.5,1.2,0.5
		c0.4,0,0.9-0.2,1.2-0.5l3.7-3.7c0.7-0.7,0.7-1.7,0-2.4l-3.3-3.3l1.9-1.9c0.4-0.4,0.5-0.9,0.4-1.4s-0.5-0.9-1-1L70,38.6V24.3l0,0
		v-7.2c0-0.8-0.6-1.4-1.4-1.4l0,0H28.5l0,0c-0.8,0-1.4,0.6-1.4,1.4v28.6C27.1,46.5,27.7,47.1,28.5,47.1z M61.4,36.1l-1-0.3
		c-0.1,0-0.3-0.1-0.4-0.1c-0.4,0-0.8,0.1-1,0.4c-0.4,0.4-0.5,0.9-0.4,1.4l0.3,1h-6.1v-5.7h8.6V36.1z M70.5,45.5l3.3,3.3l-2,2
		l-3.1-3.1c-0.4-0.4-0.8-0.5-1.3-0.5s-1,0.2-1.3,0.5l-1,1l-2.8-9.5l0.3,0.1l0,0l5.7,1.7l0,0l3.4,1l-1.1,1.1
		c-0.3,0.3-0.5,0.7-0.5,1.2S70.2,45.2,70.5,45.5z M64.3,36.9v-5.5c0-0.8-0.6-1.4-1.4-1.4H51.4c-0.8,0-1.4,0.6-1.4,1.4V40
		c0,0.8,0.6,1.4,1.4,1.4h8.4l0.9,2.9H30V25.7h37.2v12.1L64.3,36.9z M67.2,18.5v4.3H30v-4.3H67.2z"/>
	<path class="st0" d="M92.9,57.2V13c0-3.3-2.7-6-6-6H13c-3.3,0-6,2.7-6,6v58.2c0,3.3,2.7,6,6,6l0,0h28.3c-0.3,5.1-2.4,7.2-7.1,7.2
		h-2.9c-2.4,0-4.3,1.9-4.3,4.3v2.9c0,0.8,0.6,1.4,1.4,1.4h42.9c0.8,0,1.4-0.6,1.4-1.4v-2.9c0-2.4-1.9-4.3-4.3-4.3h-2.9
		c-4.7,0-6.8-2.1-7.1-7.2H87c0.4,0,0.8,0,1.2-0.1c2.7-0.6,4.8-3,4.8-5.9L92.9,57.2L92.9,57.2z M13,9.9h74c1.7,0,3.1,1.4,3.1,3.1
		v44.1H9.9V13C9.9,11.3,11.3,9.9,13,9.9z M70,88.6V90H30v-1.4c0-0.8,0.6-1.4,1.4-1.4h2.9h31.5h2.9C69.4,87.2,70,87.8,70,88.6z
		 M58.3,84.3H41.7c1.5-1.7,2.3-4.1,2.5-7.2h11.5C56,80.3,56.8,82.7,58.3,84.3z M57.2,74.3H42.8H13c-1.7,0-3.1-1.4-3.1-3.1V60H90
		v11.2c0,1.7-1.4,3.1-3.1,3.1C86.9,74.3,57.2,74.3,57.2,74.3z"/>
	<path class="st0" d="M52.9,62.9h-5.7c-0.8,0-1.4,0.6-1.4,1.4V70c0,0.8,0.6,1.4,1.4,1.4h5.7c0.8,0,1.4-0.6,1.4-1.4v-5.7
		C54.3,63.5,53.7,62.9,52.9,62.9z M51.4,68.6h-2.9v-2.9h2.9V68.6z"/>
</g>
</svg>
