<?xml version="1.0" encoding="utf-8"?>
<!-- Generator: Adobe Illustrator 21.1.0, SVG Export Plug-In . SVG Version: 6.00 Build 0)  -->
<svg version="1.1" id="Warstwa_1" xmlns="http://www.w3.org/2000/svg" xmlns:xlink="http://www.w3.org/1999/xlink" x="0px" y="0px"
	 viewBox="0 0 100 100" style="enable-background:new 0 0 100 100;" xml:space="preserve">
<style type="text/css">
	.st0{fill:#0C226E;}
</style>
<g>
	<path class="st0" d="M90.5,14.2h-81c-0.7,0-1.3,0.6-1.3,1.3v72.9c0,0.7,0.6,1.3,1.3,1.3h80.9c0.7,0,1.3-0.6,1.3-1.3V74.2
		c0-0.7-0.6-1.3-1.3-1.3s-1.3,0.6-1.3,1.3v12.9H10.9V27.5h78.3v41.4c0,0.7,0.6,1.3,1.3,1.3s1.3-0.6,1.3-1.3V15.5
		C91.8,14.8,91.2,14.2,90.5,14.2z M10.9,16.8h49.4v8H10.9V16.8z M62.9,24.8v-8h26.2v8H62.9z"/>
	<path class="st0" d="M76.1,19.4c-0.8,0-1.4,0.6-1.4,1.4s0.6,1.4,1.4,1.4s1.4-0.6,1.4-1.4S76.8,19.4,76.1,19.4z"/>
	<path class="st0" d="M68.8,19.4c-0.8,0-1.4,0.6-1.4,1.4s0.6,1.4,1.4,1.4s1.4-0.6,1.4-1.4S69.6,19.4,68.8,19.4z"/>
	<path class="st0" d="M83.4,19.4c-0.8,0-1.4,0.6-1.4,1.4s0.6,1.4,1.4,1.4s1.4-0.6,1.4-1.4S84.1,19.4,83.4,19.4z"/>
	<path class="st0" d="M34.7,50.4c0.5-0.1,1-0.4,1.1-0.9l3.1-10.2c0.2-0.7-0.2-1.4-0.9-1.7c-0.7-0.2-1.4,0.2-1.7,0.9l-2.2,7.3
		L32,42.2c-0.2-0.4-0.7-0.6-1.1-0.6s-0.9,0.2-1.1,0.6l-2.1,3.5l-2.2-7.3c-0.2-0.7-1-1.1-1.7-0.9c-0.7,0.2-1.1,1-0.9,1.7L26,49.4
		c0.2,0.5,0.6,0.9,1.1,0.9c0.1,0,0.1,0,0.2,0c0.5,0,0.9-0.2,1.1-0.6l2.5-4.2l2.5,4.2C33.6,50.2,34.1,50.4,34.7,50.4L34.7,50.4z"/>
	<path class="st0" d="M44.9,50.4c0.1,0,0.1,0,0.2,0c0.5,0,0.9-0.2,1.1-0.6l2.5-4.2l2.5,4.2c0.3,0.5,0.8,0.7,1.3,0.6
		c0.5-0.1,1-0.4,1.1-0.9l3.1-10.2c0.2-0.7-0.2-1.4-0.9-1.7c-0.7-0.2-1.4,0.2-1.7,0.9L52,45.8l-2.1-3.5c-0.2-0.4-0.7-0.6-1.1-0.6
		c-0.5,0-0.9,0.2-1.1,0.6l-2.1,3.5l-2.2-7.3c-0.2-0.7-1-1.1-1.7-0.9c-0.7,0.2-1.1,1-0.9,1.7l3.1,10.2C43.9,49.9,44.4,50.3,44.9,50.4
		z"/>
	<path class="st0" d="M73.8,37.5c-0.7-0.2-1.4,0.2-1.7,0.9L70,45.7l-2.1-3.5c-0.2-0.4-0.7-0.6-1.1-0.6s-0.9,0.2-1.1,0.6l-2.1,3.5
		l-2.2-7.3c-0.2-0.7-1-1.1-1.7-0.9c-0.7,0.2-1.1,1-0.9,1.7l3.1,10.2c0.2,0.5,0.6,0.9,1.1,0.9c0.5,0.1,1-0.2,1.3-0.6l2.5-4.2l2.5,4.2
		c0.2,0.4,0.7,0.6,1.1,0.6c0.1,0,0.1,0,0.2,0c0.5-0.1,1-0.4,1.1-0.9l3.1-10.2C74.9,38.5,74.5,37.7,73.8,37.5z"/>
	<path class="st0" d="M32.5,57.9c0-0.7-0.6-1.3-1.3-1.3h-7.1c-0.7,0-1.3,0.6-1.3,1.3V65c0,0.7,0.6,1.3,1.3,1.3h7.1
		c0.7,0,1.3-0.6,1.3-1.3V57.9z M29.8,63.7h-4.4v-4.4h4.4V63.7z"/>
	<path class="st0" d="M31.2,69h-7.1c-0.7,0-1.3,0.6-1.3,1.3v7.1c0,0.7,0.6,1.3,1.3,1.3h7.1c0.7,0,1.3-0.6,1.3-1.3v-7.1
		C32.5,69.6,31.9,69,31.2,69z M29.8,76.2h-4.4v-4.4h4.4V76.2z"/>
	<path class="st0" d="M73.4,60.2h-5.3c-0.7,0-1.3,0.6-1.3,1.3s0.6,1.3,1.3,1.3h5.3c0.7,0,1.3-0.6,1.3-1.3
		C74.8,60.7,74.2,60.2,73.4,60.2z"/>
	<path class="st0" d="M62.8,60.2H36.5c-0.7,0-1.3,0.6-1.3,1.3s0.6,1.3,1.3,1.3h26.2c0.7,0,1.3-0.6,1.3-1.3
		C64.1,60.7,63.5,60.2,62.8,60.2z"/>
	<path class="st0" d="M73.4,72.6h-5.3c-0.7,0-1.3,0.6-1.3,1.3s0.6,1.3,1.3,1.3h5.3c0.7,0,1.3-0.6,1.3-1.3S74.2,72.6,73.4,72.6z"/>
	<path class="st0" d="M62.8,72.6H36.5c-0.7,0-1.3,0.6-1.3,1.3s0.6,1.3,1.3,1.3h26.2c0.7,0,1.3-0.6,1.3-1.3S63.5,72.6,62.8,72.6z"/>
</g>
</svg>
